<svg width="426" height="580" viewBox="0 0 426 580" fill="none" xmlns="http://www.w3.org/2000/svg">
<g clip-path="url(#clip0)">
<path d="M377.713 93.5715C409.388 135.707 429.875 181.928 425.058 223.101C420.357 264.149 390.377 300.265 358.684 350.339C327.01 400.537 293.435 464.823 245.08 480.831C196.615 496.839 133.375 464.7 83.5672 414.502C33.7594 364.304 -2.6163 296.289 0.965605 232.009C4.54751 167.729 47.9781 107.296 97.7738 65.1668C147.57 23.0381 203.779 -0.830888 253.363 6.32721C302.947 13.4853 345.924 51.4428 377.713 93.5715Z" fill="#F2F2F2"/>
<path fill-rule="evenodd" clip-rule="evenodd" d="M203.301 282.539C235.974 282.539 253.52 306.017 256.781 329.86C260.097 354.25 256.315 374.442 257.259 403.927C257.901 423.781 266.027 437.043 271.236 454.743C276.446 472.443 137.411 476.907 138.24 460.353C139.069 443.798 149.016 426.84 149.373 406.218C149.736 385.193 146.952 372.575 147.334 338.372C147.618 311.373 170.616 282.539 203.301 282.539Z" fill="black"/>
<path fill-rule="evenodd" clip-rule="evenodd" d="M69.1488 578.513C67.8963 561.893 74.7879 502.624 96.0917 458.368C175.662 410.975 275.496 433.549 314.969 458.368C328.335 472.97 337.997 569.982 335.075 576.945" fill="#1841D3"/>
<path d="M115.078 576.945C116.331 566.162 118.315 548.788 121.552 532.695" stroke="#00BB61" stroke-width="5.73" stroke-linecap="round" stroke-linejoin="round"/>
<path d="M291.554 576.945C290.301 566.162 288.317 548.788 285.08 532.695" stroke="#00BB61" stroke-width="5.73" stroke-linecap="round" stroke-linejoin="round"/>
<path fill-rule="evenodd" clip-rule="evenodd" d="M152.797 359.495C152.796 357.613 153.314 355.772 154.285 354.206C155.256 352.64 156.637 351.419 158.253 350.697C159.87 349.974 161.649 349.784 163.366 350.149C165.083 350.514 166.66 351.418 167.9 352.747C169.139 354.077 169.984 355.771 170.328 357.617C170.672 359.462 170.5 361.376 169.833 363.117C169.166 364.857 168.034 366.346 166.581 367.394C165.127 368.443 163.417 369.005 161.667 369.009C160.504 369.011 159.351 368.767 158.276 368.29C157.2 367.813 156.222 367.113 155.398 366.23C154.575 365.346 153.921 364.296 153.474 363.141C153.028 361.985 152.798 360.746 152.797 359.495Z" fill="#D18C65"/>
<path fill-rule="evenodd" clip-rule="evenodd" d="M233.971 359.495C233.97 357.612 234.488 355.77 235.46 354.204C236.432 352.638 237.814 351.416 239.431 350.695C241.049 349.973 242.829 349.784 244.546 350.15C246.264 350.517 247.841 351.423 249.08 352.754C250.318 354.085 251.162 355.782 251.504 357.629C251.846 359.476 251.671 361.39 251.001 363.13C250.332 364.87 249.197 366.357 247.741 367.404C246.285 368.45 244.574 369.009 242.823 369.009C240.476 369.009 238.226 368.007 236.566 366.223C234.906 364.439 233.972 362.019 233.971 359.495Z" fill="#D18C65"/>
<path fill-rule="evenodd" clip-rule="evenodd" d="M238.551 195.607C229.621 188.117 227.418 196.485 226.021 201.464C224.623 206.442 224.726 215.22 231.726 215.031C237.861 220.947 243.573 213.288 245.328 209.396C247.082 205.505 251.39 197.065 238.551 195.607Z" fill="#00BB61"/>
<path d="M244.456 190.271C241.377 191.436 239.646 193.024 238.666 195.783" stroke="#1841D3" stroke-width="2.83" stroke-linecap="round" stroke-linejoin="round"/>
<path fill-rule="evenodd" clip-rule="evenodd" d="M180.315 240.059C180.314 237.854 180.92 235.698 182.058 233.863C183.196 232.029 184.814 230.598 186.707 229.752C188.601 228.906 190.685 228.683 192.696 229.11C194.708 229.538 196.556 230.597 198.008 232.154C199.46 233.711 200.45 235.696 200.853 237.858C201.257 240.02 201.055 242.262 200.274 244.301C199.493 246.34 198.168 248.084 196.465 249.313C194.763 250.542 192.76 251.201 190.71 251.206C189.346 251.209 187.996 250.924 186.735 250.365C185.474 249.806 184.329 248.986 183.363 247.951C182.398 246.915 181.631 245.685 181.108 244.331C180.585 242.977 180.316 241.525 180.315 240.059Z" fill="#E94200"/>
<path fill-rule="evenodd" clip-rule="evenodd" d="M108.501 244.978L137.223 237.137L148.858 286.45L120.143 294.259L108.501 244.978Z" fill="#DFDFDF"/>
<path fill-rule="evenodd" clip-rule="evenodd" d="M114.552 250.412L134.313 245.017L135.838 251.479L116.077 256.861L114.552 250.412Z" fill="#00BB61"/>
<path d="M117.734 263.889L137.495 258.494" stroke="#E94200" stroke-width="3.11" stroke-linecap="round" stroke-linejoin="round"/>
<path d="M119.392 270.904L139.159 265.509" stroke="#E94200" stroke-width="3.11" stroke-linecap="round" stroke-linejoin="round"/>
<path d="M121.129 278.224L140.908 272.823" stroke="#E94200" stroke-width="3.11" stroke-linecap="round" stroke-linejoin="round"/>
<path d="M122.787 285.298L130.543 283.177" stroke="#E94200" stroke-width="3.11" stroke-linecap="round" stroke-linejoin="round"/>
<path d="M139.456 280.743L142.566 279.897" stroke="#E94200" stroke-width="3.11" stroke-linecap="round" stroke-linejoin="round"/>
<path fill-rule="evenodd" clip-rule="evenodd" d="M89.4604 133.013L163.785 94.951L187.013 147.407L112.688 185.475L89.4604 133.013Z" fill="#DFDFDF"/>
<path d="M115.163 173.872L122.557 150.596L136.334 153.394L141.743 124.69L155.054 127.071L158.926 106.82" stroke="#00BB61" stroke-width="3.11" stroke-linecap="round" stroke-linejoin="round"/>
<path fill-rule="evenodd" clip-rule="evenodd" d="M119.949 152.092C119.625 151.357 119.51 150.534 119.621 149.729C119.731 148.923 120.06 148.171 120.568 147.567C121.075 146.963 121.738 146.534 122.472 146.334C123.206 146.135 123.978 146.174 124.691 146.446C125.405 146.719 126.027 147.212 126.48 147.865C126.932 148.517 127.195 149.299 127.235 150.112C127.274 150.925 127.089 151.733 126.702 152.433C126.315 153.132 125.745 153.693 125.062 154.044C124.607 154.278 124.114 154.413 123.61 154.441C123.107 154.47 122.603 154.391 122.128 154.21C121.653 154.028 121.216 153.748 120.842 153.385C120.468 153.021 120.165 152.582 119.949 152.092Z" fill="#1841D3"/>
<path fill-rule="evenodd" clip-rule="evenodd" d="M138.463 127.117C138.137 126.38 138.022 125.556 138.131 124.749C138.241 123.941 138.571 123.187 139.079 122.581C139.587 121.975 140.251 121.545 140.986 121.345C141.722 121.144 142.496 121.183 143.211 121.456C143.926 121.729 144.549 122.224 145.003 122.878C145.456 123.532 145.719 124.316 145.758 125.131C145.797 125.946 145.611 126.755 145.222 127.456C144.834 128.157 144.261 128.718 143.576 129.069C143.121 129.303 142.628 129.438 142.125 129.466C141.622 129.495 141.118 129.416 140.643 129.234C140.168 129.053 139.731 128.773 139.357 128.409C138.983 128.046 138.679 127.607 138.463 127.117Z" fill="#1841D3"/>
<path fill-rule="evenodd" clip-rule="evenodd" d="M279.253 171.354C279.253 168.56 280.024 165.829 281.467 163.506C282.911 161.183 284.963 159.373 287.364 158.305C289.764 157.237 292.405 156.959 294.953 157.506C297.501 158.053 299.84 159.401 301.675 161.378C303.51 163.356 304.759 165.874 305.263 168.615C305.767 171.356 305.503 174.196 304.506 176.776C303.508 179.356 301.822 181.559 299.659 183.108C297.497 184.656 294.956 185.48 292.358 185.475C288.88 185.47 285.546 183.98 283.088 181.332C280.631 178.684 279.251 175.095 279.253 171.354Z" fill="#1841D3"/>
<path d="M314.546 168.888C315.176 171.302 315.279 173.841 314.846 176.306C314.414 178.77 313.457 181.094 312.051 183.095C310.645 185.096 308.828 186.72 306.742 187.841C304.655 188.962 302.356 189.548 300.024 189.555C299.035 189.556 298.048 189.454 297.078 189.249" stroke="#00BB61" stroke-width="3.11" stroke-linecap="round" stroke-linejoin="round"/>
<path fill-rule="evenodd" clip-rule="evenodd" d="M284.42 182.078L279.386 191.787L300.17 195.379L297.895 184.069" fill="#1841D3"/>
<path fill-rule="evenodd" clip-rule="evenodd" d="M289.285 171.354C289.285 170.695 289.466 170.051 289.807 169.503C290.147 168.955 290.631 168.528 291.197 168.276C291.763 168.024 292.386 167.958 292.987 168.086C293.588 168.215 294.14 168.532 294.573 168.998C295.006 169.464 295.301 170.058 295.421 170.704C295.54 171.35 295.479 172.02 295.245 172.629C295.01 173.238 294.613 173.758 294.104 174.124C293.594 174.49 292.995 174.686 292.383 174.686C291.561 174.686 290.773 174.335 290.192 173.71C289.611 173.085 289.285 172.238 289.285 171.354Z" fill="#1B3C87"/>
<path fill-rule="evenodd" clip-rule="evenodd" d="M310.613 168.022C310.613 167.363 310.794 166.719 311.135 166.171C311.475 165.623 311.959 165.196 312.525 164.944C313.091 164.692 313.714 164.626 314.315 164.755C314.916 164.883 315.468 165.2 315.901 165.666C316.334 166.132 316.629 166.726 316.749 167.372C316.869 168.019 316.807 168.688 316.573 169.297C316.338 169.906 315.941 170.426 315.432 170.792C314.922 171.159 314.323 171.354 313.711 171.354C312.89 171.352 312.103 171.001 311.522 170.376C310.941 169.752 310.614 168.905 310.613 168.022Z" fill="#1841D3"/>
<path fill-rule="evenodd" clip-rule="evenodd" d="M61.7793 65.1993L81.1954 70.8412L62.0757 146.977L42.6596 141.355L61.7793 65.1993Z" fill="#00BB61"/>
<path d="M48.8312 116.777L59.5224 119.887" stroke="#1841D3" stroke-width="4.23" stroke-linecap="round" stroke-linejoin="round"/>
<path d="M45.4368 130.286L56.1341 133.39" stroke="#1841D3" stroke-width="4.23" stroke-linecap="round" stroke-linejoin="round"/>
<path d="M52.2194 103.287L62.9168 106.397" stroke="#1841D3" stroke-width="4.23" stroke-linecap="round" stroke-linejoin="round"/>
<path d="M55.6138 89.7711L66.3051 92.8752" stroke="#1841D3" stroke-width="4.23" stroke-linecap="round" stroke-linejoin="round"/>
<path d="M59.0021 76.2684L69.6994 79.3724" stroke="#1841D3" stroke-width="4.23" stroke-linecap="round" stroke-linejoin="round"/>
<path fill-rule="evenodd" clip-rule="evenodd" d="M261.761 49.4125L335.075 68.4465L322.974 122.21L249.69 103.17L261.761 49.4125Z" fill="#DFDFDF"/>
<path fill-rule="evenodd" clip-rule="evenodd" d="M305.609 107.699C305.976 106.065 306.785 104.585 307.934 103.445C309.083 102.306 310.52 101.559 312.064 101.298C313.608 101.037 315.189 101.274 316.608 101.98C318.026 102.686 319.218 103.828 320.033 105.262C320.848 106.696 321.249 108.358 321.186 110.038C321.122 111.717 320.597 113.339 319.677 114.698C318.757 116.056 317.483 117.091 316.016 117.67C314.549 118.25 312.955 118.349 311.436 117.955C309.399 117.426 307.64 116.048 306.547 114.125C305.455 112.201 305.117 109.89 305.609 107.699Z" fill="#00BB61"/>
<path fill-rule="evenodd" clip-rule="evenodd" d="M307.945 114.694L302.675 129.473L310.032 127.683L314.757 132.401L315.707 116.302" fill="#00BB61"/>
<path d="M266.093 63.3578L323.972 78.3898" stroke="#E94200" stroke-width="3.11" stroke-linecap="round" stroke-linejoin="round"/>
<path d="M262.741 78.11L297.695 87.1877" stroke="#E94200" stroke-width="3.11" stroke-linecap="round" stroke-linejoin="round"/>
<path fill-rule="evenodd" clip-rule="evenodd" d="M145.416 56.7463L137.55 47.5774L148.864 44.8248L160.185 42.0722L156.742 53.9937L153.299 65.9086L145.416 56.7463Z" fill="#E94200"/>
<path fill-rule="evenodd" clip-rule="evenodd" d="M301.694 248.974L290.918 253.607L292.57 241.243L294.222 228.879L303.34 236.59L312.464 244.308L301.694 248.974Z" fill="#1841D3"/>
<path d="M213.242 100.033C213.242 98.8363 213.572 97.6663 214.19 96.671C214.808 95.6758 215.687 94.9001 216.715 94.4421C217.744 93.984 218.875 93.8642 219.967 94.0977C221.058 94.3312 222.061 94.9076 222.848 95.754C223.635 96.6003 224.171 97.6787 224.388 98.8526C224.605 100.027 224.493 101.243 224.067 102.349C223.642 103.455 222.92 104.4 221.995 105.065C221.07 105.73 219.982 106.085 218.869 106.085C217.376 106.085 215.945 105.448 214.89 104.313C213.835 103.178 213.242 101.638 213.242 100.033Z" stroke="#00BB61" stroke-width="3.11" stroke-linecap="round" stroke-linejoin="round"/>
<path fill-rule="evenodd" clip-rule="evenodd" d="M56.0252 201.418C56.0252 200.221 56.3553 199.051 56.9736 198.056C57.5919 197.061 58.4707 196.285 59.4989 195.827C60.5271 195.369 61.6585 195.249 62.75 195.482C63.8415 195.716 64.8441 196.292 65.6311 197.139C66.418 197.985 66.9539 199.063 67.1711 200.237C67.3882 201.411 67.2767 202.628 66.8509 203.734C66.425 204.84 65.7037 205.785 64.7784 206.45C63.853 207.115 62.7651 207.47 61.6522 207.47C60.1598 207.47 58.7286 206.832 57.6733 205.697C56.6181 204.562 56.0252 203.023 56.0252 201.418Z" fill="#1841D3"/>
<path fill-rule="evenodd" clip-rule="evenodd" d="M183.334 395.305H220.962C220.962 395.305 221.138 437.115 220.962 453.565C220.962 460.353 183.346 459.578 183.346 453.565L183.334 395.305Z" fill="#D18C65"/>
<path fill-rule="evenodd" clip-rule="evenodd" d="M164.087 355.33C164.087 324.277 181.634 299.1 203.313 299.1C224.992 299.1 242.544 324.277 242.544 355.33C242.544 386.383 224.998 411.567 203.313 411.567C181.628 411.567 164.087 386.39 164.087 355.33Z" fill="#E49D75"/>
<path fill-rule="evenodd" clip-rule="evenodd" d="M224.496 295.072C214.531 319.976 173.242 344.287 155.853 349.975C153.106 335.105 170.9 271.769 224.496 295.072Z" fill="black"/>
<path fill-rule="evenodd" clip-rule="evenodd" d="M202.43 294.304C194.885 297.395 219.413 339.589 248.807 349.975C260.805 331.604 233.142 293.426 202.43 294.304Z" fill="black"/>
<path fill-rule="evenodd" clip-rule="evenodd" d="M258.518 11.6174C258.517 9.41091 259.124 7.25357 260.263 5.41837C261.402 3.58317 263.022 2.15257 264.917 1.30758C266.812 0.462577 268.898 0.24115 270.91 0.671308C272.922 1.10147 274.771 2.16388 276.222 3.72413C277.672 5.28439 278.66 7.27237 279.06 9.43657C279.46 11.6008 279.254 13.8439 278.468 15.8822C277.683 17.9206 276.353 19.6625 274.646 20.8875C272.94 22.1126 270.934 22.7658 268.882 22.7646C266.134 22.7646 263.497 21.5901 261.554 19.4996C259.61 17.4092 258.518 14.5738 258.518 11.6174Z" fill="#1841D3"/>
<path d="M79.7553 304.729C79.7553 302.67 80.3231 300.657 81.3869 298.944C82.4506 297.232 83.9625 295.898 85.7315 295.11C87.5004 294.322 89.4469 294.116 91.3248 294.517C93.2027 294.919 94.9277 295.911 96.2815 297.367C97.6354 298.823 98.5574 300.678 98.931 302.698C99.3045 304.717 99.1128 306.811 98.3801 308.713C97.6474 310.616 96.4065 312.242 94.8145 313.386C93.2225 314.53 91.3508 315.141 89.4362 315.141C86.8686 315.141 84.4063 314.044 82.5908 312.091C80.7753 310.139 79.7553 307.49 79.7553 304.729Z" stroke="#E94200" stroke-width="3.11" stroke-linecap="round" stroke-linejoin="round"/>
<path d="M294.252 300.343C294.251 299.145 294.58 297.973 295.199 296.975C295.817 295.978 296.696 295.201 297.725 294.741C298.755 294.282 299.887 294.161 300.98 294.394C302.074 294.627 303.078 295.203 303.866 296.05C304.655 296.897 305.192 297.977 305.41 299.152C305.627 300.328 305.516 301.546 305.09 302.653C304.664 303.761 303.942 304.707 303.015 305.373C302.089 306.039 301 306.395 299.885 306.395C299.146 306.396 298.413 306.24 297.73 305.936C297.047 305.632 296.426 305.187 295.902 304.625C295.379 304.063 294.964 303.395 294.681 302.66C294.398 301.926 294.252 301.138 294.252 300.343V300.343Z" stroke="#00BB61" stroke-width="3.11" stroke-linecap="round" stroke-linejoin="round"/>
<path d="M377.713 94.0595C409.388 136.188 429.875 182.417 425.058 223.556C420.357 264.67 390.377 300.746 358.684 350.827C327.01 401.025 293.435 465.305 245.08 481.313C196.615 497.327 133.375 465.188 83.5672 414.99C33.7594 364.792 -2.6163 296.777 0.965605 232.491C4.54751 168.204 47.9781 107.784 97.7738 65.6483C147.57 23.5132 203.779 -0.316821 253.363 6.78272C302.947 13.8823 345.924 51.9243 377.713 94.0595Z" fill="#F2F2F2"/>
<path fill-rule="evenodd" clip-rule="evenodd" d="M203.301 283.02C235.974 283.02 253.52 306.505 256.781 330.348C260.097 354.732 256.315 374.924 257.259 404.409C257.901 424.269 266.027 437.525 271.236 455.231C276.446 472.938 137.411 477.395 138.24 460.834C139.069 444.273 149.016 427.321 149.373 406.699C149.736 385.681 146.952 373.056 147.334 338.86C147.618 311.855 170.616 283.02 203.301 283.02Z" fill="black"/>
<path fill-rule="evenodd" clip-rule="evenodd" d="M69.1488 578.975C67.8963 562.356 74.7879 503.086 96.0917 458.836C175.662 411.443 275.496 434.011 314.969 458.836C328.335 473.439 337.997 570.444 335.075 577.407" fill="#1841D3"/>
<path d="M115.078 577.427C116.331 566.644 118.315 549.269 121.552 533.177" stroke="#00BB61" stroke-width="5.73" stroke-linecap="round" stroke-linejoin="round"/>
<path d="M291.554 577.427C290.301 566.644 288.317 549.269 285.08 533.177" stroke="#00BB61" stroke-width="5.73" stroke-linecap="round" stroke-linejoin="round"/>
<path fill-rule="evenodd" clip-rule="evenodd" d="M152.797 359.977C152.796 358.094 153.314 356.254 154.285 354.688C155.256 353.122 156.637 351.9 158.253 351.178C159.87 350.456 161.649 350.265 163.366 350.63C165.083 350.996 166.66 351.9 167.9 353.229C169.139 354.558 169.984 356.253 170.328 358.098C170.672 359.944 170.5 361.858 169.833 363.598C169.166 365.339 168.034 366.827 166.581 367.876C165.127 368.925 163.417 369.486 161.667 369.49C160.504 369.493 159.351 369.249 158.276 368.772C157.2 368.295 156.222 367.595 155.398 366.711C154.575 365.827 153.921 364.778 153.474 363.622C153.028 362.467 152.798 361.228 152.797 359.977Z" fill="#D18C65"/>
<path fill-rule="evenodd" clip-rule="evenodd" d="M233.971 359.977C233.97 358.093 234.488 356.252 235.46 354.686C236.432 353.119 237.814 351.898 239.431 351.176C241.049 350.455 242.829 350.265 244.546 350.632C246.264 350.999 247.841 351.905 249.08 353.236C250.318 354.567 251.162 356.263 251.504 358.11C251.846 359.957 251.671 361.872 251.001 363.612C250.332 365.352 249.197 366.839 247.741 367.885C246.285 368.932 244.574 369.49 242.823 369.49C240.476 369.49 238.226 368.488 236.566 366.704C234.906 364.92 233.972 362.5 233.971 359.977Z" fill="#D18C65"/>
<path fill-rule="evenodd" clip-rule="evenodd" d="M238.551 196.095C229.621 188.598 227.418 196.973 226.021 201.952C224.623 206.93 224.726 215.708 231.726 215.519C237.861 221.441 243.573 213.782 245.328 209.891C247.082 205.999 251.39 197.553 238.551 196.095Z" fill="#00BB61"/>
<path d="M244.456 190.752C241.377 191.917 239.646 193.505 238.666 196.264" stroke="#1841D3" stroke-width="2.83" stroke-linecap="round" stroke-linejoin="round"/>
<path fill-rule="evenodd" clip-rule="evenodd" d="M180.315 240.54C180.314 238.335 180.92 236.179 182.058 234.345C183.196 232.51 184.814 231.08 186.707 230.234C188.601 229.388 190.685 229.164 192.696 229.592C194.708 230.019 196.556 231.079 198.008 232.636C199.46 234.193 200.45 236.177 200.853 238.34C201.257 240.502 201.055 242.744 200.274 244.783C199.493 246.821 198.168 248.566 196.465 249.795C194.763 251.024 192.76 251.682 190.71 251.687C189.346 251.692 187.995 251.407 186.734 250.848C185.473 250.29 184.327 249.47 183.361 248.434C182.396 247.399 181.63 246.168 181.107 244.814C180.584 243.459 180.315 242.007 180.315 240.54Z" fill="#E94200"/>
<path fill-rule="evenodd" clip-rule="evenodd" d="M108.501 245.46L137.223 237.619L148.858 286.931L120.143 294.773L108.501 245.46Z" fill="#DFDFDF"/>
<path fill-rule="evenodd" clip-rule="evenodd" d="M114.552 250.893L134.313 245.499L135.838 251.961L116.077 257.355L114.552 250.893Z" fill="#00BB61"/>
<path d="M117.734 264.377L137.495 258.976" stroke="#E94200" stroke-width="3.11" stroke-linecap="round" stroke-linejoin="round"/>
<path d="M119.392 271.392L139.159 265.971" stroke="#E94200" stroke-width="3.11" stroke-linecap="round" stroke-linejoin="round"/>
<path d="M121.129 278.706L140.908 273.305" stroke="#E94200" stroke-width="3.11" stroke-linecap="round" stroke-linejoin="round"/>
<path d="M122.787 285.78L130.543 283.665" stroke="#E94200" stroke-width="3.11" stroke-linecap="round" stroke-linejoin="round"/>
<path d="M139.456 281.224L142.566 280.378" stroke="#E94200" stroke-width="3.11" stroke-linecap="round" stroke-linejoin="round"/>
<path fill-rule="evenodd" clip-rule="evenodd" d="M89.4604 133.501L163.785 95.4326L187.013 147.895L112.688 185.93L89.4604 133.501Z" fill="#DFDFDF"/>
<path d="M115.163 174.354L122.557 151.084L136.334 153.843L141.743 125.139L155.054 127.52L158.926 107.276" stroke="#00BB61" stroke-width="3.11" stroke-linecap="round" stroke-linejoin="round"/>
<path fill-rule="evenodd" clip-rule="evenodd" d="M119.949 152.606C119.623 151.869 119.507 151.045 119.617 150.238C119.726 149.43 120.056 148.676 120.564 148.07C121.072 147.464 121.736 147.034 122.472 146.834C123.207 146.634 123.981 146.672 124.696 146.945C125.411 147.218 126.035 147.713 126.488 148.368C126.942 149.022 127.205 149.806 127.244 150.621C127.283 151.436 127.096 152.245 126.708 152.945C126.32 153.646 125.747 154.208 125.062 154.558C124.143 155.027 123.089 155.085 122.13 154.719C121.172 154.353 120.387 153.593 119.949 152.606Z" fill="#1841D3"/>
<path fill-rule="evenodd" clip-rule="evenodd" d="M138.463 127.598C138.137 126.862 138.022 126.037 138.131 125.23C138.241 124.423 138.571 123.668 139.079 123.062C139.587 122.456 140.251 122.026 140.986 121.826C141.722 121.626 142.496 121.665 143.211 121.938C143.926 122.211 144.549 122.706 145.003 123.36C145.456 124.014 145.719 124.798 145.758 125.613C145.797 126.428 145.611 127.237 145.222 127.938C144.834 128.639 144.261 129.2 143.576 129.551C143.121 129.784 142.628 129.919 142.125 129.948C141.622 129.976 141.118 129.897 140.643 129.716C140.168 129.535 139.731 129.254 139.357 128.891C138.983 128.528 138.679 128.088 138.463 127.598Z" fill="#1841D3"/>
<path fill-rule="evenodd" clip-rule="evenodd" d="M279.253 171.836C279.248 169.04 280.015 166.307 281.456 163.981C282.897 161.654 284.947 159.84 287.347 158.768C289.747 157.696 292.389 157.415 294.938 157.959C297.487 158.503 299.829 159.848 301.667 161.824C303.504 163.801 304.755 166.319 305.261 169.061C305.767 171.803 305.505 174.644 304.508 177.225C303.511 179.807 301.825 182.012 299.662 183.562C297.499 185.111 294.957 185.936 292.358 185.93C288.885 185.924 285.555 184.436 283.099 181.795C280.642 179.153 279.259 175.572 279.253 171.836Z" fill="#1841D3"/>
<path d="M314.546 169.376C314.927 170.815 315.118 172.304 315.114 173.801C315.115 176.202 314.621 178.574 313.667 180.745C312.713 182.916 311.323 184.833 309.597 186.356C307.871 187.88 305.853 188.973 303.687 189.556C301.521 190.14 299.262 190.2 297.072 189.731" stroke="#00BB61" stroke-width="3.11" stroke-linecap="round" stroke-linejoin="round"/>
<path fill-rule="evenodd" clip-rule="evenodd" d="M284.42 182.56L279.386 192.249L300.17 195.848L297.895 184.531" fill="#1841D3"/>
<path fill-rule="evenodd" clip-rule="evenodd" d="M289.285 171.836C289.285 171.177 289.466 170.532 289.807 169.985C290.147 169.437 290.631 169.01 291.197 168.757C291.763 168.505 292.386 168.439 292.987 168.568C293.588 168.696 294.14 169.014 294.573 169.48C295.006 169.946 295.301 170.539 295.421 171.186C295.54 171.832 295.479 172.502 295.245 173.111C295.01 173.719 294.613 174.24 294.104 174.606C293.594 174.972 292.995 175.167 292.383 175.167C291.561 175.167 290.773 174.816 290.192 174.191C289.611 173.567 289.285 172.719 289.285 171.836Z" fill="#1B3C87"/>
<path fill-rule="evenodd" clip-rule="evenodd" d="M310.613 168.504C310.613 167.845 310.794 167.201 311.135 166.653C311.475 166.105 311.959 165.678 312.525 165.426C313.091 165.173 313.714 165.107 314.315 165.236C314.916 165.365 315.468 165.682 315.901 166.148C316.334 166.614 316.629 167.207 316.749 167.854C316.869 168.5 316.807 169.17 316.573 169.779C316.338 170.388 315.941 170.908 315.432 171.274C314.922 171.64 314.323 171.836 313.711 171.836C312.889 171.836 312.101 171.484 311.52 170.86C310.939 170.235 310.613 169.387 310.613 168.504Z" fill="#1841D3"/>
<path fill-rule="evenodd" clip-rule="evenodd" d="M61.7793 65.6809L81.1954 71.3293L62.0757 147.465L42.6415 141.824L61.7793 65.6809Z" fill="#00BB61"/>
<path d="M48.8312 117.265L59.5224 120.369" stroke="#1841D3" stroke-width="4.23" stroke-linecap="round" stroke-linejoin="round"/>
<path d="M45.4368 130.768L56.1341 133.872" stroke="#1841D3" stroke-width="4.23" stroke-linecap="round" stroke-linejoin="round"/>
<path d="M52.2194 103.762L62.9168 106.866" stroke="#1841D3" stroke-width="4.23" stroke-linecap="round" stroke-linejoin="round"/>
<path d="M55.6138 90.2722L66.3051 93.3762" stroke="#1841D3" stroke-width="4.23" stroke-linecap="round" stroke-linejoin="round"/>
<path d="M59.0021 76.7499L69.6994 79.8604" stroke="#1841D3" stroke-width="4.23" stroke-linecap="round" stroke-linejoin="round"/>
<path fill-rule="evenodd" clip-rule="evenodd" d="M261.761 49.9266L335.075 68.9346L322.974 122.692L249.69 103.651L261.761 49.9266Z" fill="#DFDFDF"/>
<path fill-rule="evenodd" clip-rule="evenodd" d="M305.609 108.18C305.976 106.547 306.785 105.066 307.934 103.927C309.083 102.787 310.52 102.04 312.064 101.779C313.608 101.518 315.189 101.756 316.608 102.461C318.026 103.167 319.218 104.309 320.033 105.744C320.848 107.178 321.249 108.84 321.186 110.519C321.122 112.199 320.597 113.821 319.677 115.179C318.757 116.538 317.483 117.572 316.016 118.152C314.549 118.732 312.955 118.831 311.436 118.436C309.399 117.907 307.64 116.529 306.547 114.606C305.455 112.683 305.117 110.371 305.609 108.18Z" fill="#00BB61"/>
<path fill-rule="evenodd" clip-rule="evenodd" d="M307.945 115.182L302.675 129.967L310.032 128.171L314.757 132.889L315.707 116.783" fill="#00BB61"/>
<path d="M266.093 63.8458L323.972 78.8778" stroke="#E94200" stroke-width="3.11" stroke-linecap="round" stroke-linejoin="round"/>
<path d="M262.741 78.598L297.695 87.6693" stroke="#E94200" stroke-width="3.11" stroke-linecap="round" stroke-linejoin="round"/>
<path fill-rule="evenodd" clip-rule="evenodd" d="M145.416 57.2278L137.55 48.0655L148.864 45.3128L160.185 42.5602L156.736 54.4817L153.293 66.4032L145.416 57.2278Z" fill="#E94200"/>
<path fill-rule="evenodd" clip-rule="evenodd" d="M301.694 249.455L290.918 254.095L292.57 241.731L294.222 229.367L303.34 237.078L312.464 244.79L301.694 249.455Z" fill="#1841D3"/>
<path d="M213.242 100.528C213.242 99.3309 213.572 98.1608 214.19 97.1656C214.808 96.1704 215.687 95.3947 216.715 94.9367C217.744 94.4786 218.875 94.3588 219.967 94.5923C221.058 94.8258 222.061 95.4022 222.848 96.2485C223.635 97.0949 224.171 98.1732 224.388 99.3472C224.605 100.521 224.493 101.738 224.067 102.844C223.642 103.95 222.92 104.895 221.995 105.56C221.07 106.225 219.982 106.58 218.869 106.58C217.376 106.58 215.945 105.942 214.89 104.807C213.835 103.672 213.242 102.133 213.242 100.528Z" stroke="#00BB61" stroke-width="3.11" stroke-linecap="round" stroke-linejoin="round"/>
<path fill-rule="evenodd" clip-rule="evenodd" d="M56.0252 201.9C56.0252 200.703 56.3553 199.533 56.9736 198.537C57.5919 197.542 58.4707 196.766 59.4989 196.308C60.5271 195.85 61.6585 195.731 62.75 195.964C63.8415 196.198 64.8441 196.774 65.6311 197.62C66.418 198.467 66.9539 199.545 67.1711 200.719C67.3882 201.893 67.2767 203.11 66.8509 204.216C66.425 205.321 65.7037 206.267 64.7784 206.932C63.853 207.597 62.7651 207.951 61.6522 207.951C60.1598 207.951 58.7286 207.314 57.6733 206.179C56.6181 205.044 56.0252 203.505 56.0252 201.9Z" fill="#1841D3"/>
<path fill-rule="evenodd" clip-rule="evenodd" d="M183.334 395.787H220.962C220.962 395.787 221.138 437.596 220.962 454.053C220.962 460.841 183.346 460.06 183.346 454.053L183.334 395.787Z" fill="#D18C65"/>
<path fill-rule="evenodd" clip-rule="evenodd" d="M164.087 355.818C164.087 324.759 181.634 299.588 203.313 299.588C224.992 299.588 242.544 324.759 242.544 355.818C242.544 386.878 224.998 412.048 203.313 412.048C181.628 412.048 164.087 386.871 164.087 355.818Z" fill="#E49D75"/>
<path fill-rule="evenodd" clip-rule="evenodd" d="M224.496 295.554C214.531 320.457 173.242 344.775 155.853 350.463C153.106 335.6 170.9 272.257 224.496 295.554Z" fill="black"/>
<path fill-rule="evenodd" clip-rule="evenodd" d="M202.43 294.786C194.885 297.857 219.413 340.07 248.795 350.463C260.805 332.086 233.142 293.914 202.43 294.786Z" fill="black"/>
<path fill-rule="evenodd" clip-rule="evenodd" d="M258.518 12.1069C258.515 9.90011 259.122 7.74214 260.26 5.90608C261.398 4.07002 263.018 2.63841 264.913 1.79242C266.808 0.946421 268.894 0.724064 270.906 1.15349C272.919 1.58291 274.768 2.64481 276.219 4.2048C277.671 5.76479 278.659 7.75276 279.06 9.91714C279.46 12.0815 279.255 14.325 278.469 16.3637C277.684 18.4024 276.353 20.1447 274.647 21.3701C272.94 22.5954 270.934 23.2488 268.882 23.2475C266.135 23.2475 263.499 22.074 261.556 19.9849C259.612 17.8958 258.519 15.0622 258.518 12.1069Z" fill="#1841D3"/>
<path d="M79.7553 305.211C79.7553 303.151 80.3231 301.138 81.3869 299.426C82.4506 297.714 83.9625 296.379 85.7315 295.591C87.5004 294.803 89.4469 294.597 91.3248 294.999C93.2027 295.401 94.9277 296.392 96.2815 297.848C97.6354 299.304 98.5574 301.16 98.931 303.179C99.3045 305.199 99.1128 307.292 98.3801 309.195C97.6474 311.097 96.4065 312.724 94.8145 313.868C93.2225 315.012 91.3508 315.622 89.4362 315.622C86.8686 315.622 84.4063 314.525 82.5908 312.573C80.7753 310.62 79.7553 307.972 79.7553 305.211Z" stroke="#E94200" stroke-width="3.11" stroke-linecap="round" stroke-linejoin="round"/>
<path d="M294.252 300.825C294.251 299.626 294.58 298.454 295.199 297.457C295.817 296.46 296.696 295.682 297.725 295.223C298.755 294.763 299.887 294.642 300.98 294.875C302.074 295.108 303.078 295.685 303.866 296.532C304.655 297.379 305.192 298.458 305.41 299.634C305.627 300.809 305.516 302.028 305.09 303.135C304.664 304.242 303.942 305.189 303.015 305.855C302.089 306.521 301 306.876 299.885 306.876C299.146 306.877 298.413 306.721 297.73 306.418C297.047 306.114 296.426 305.668 295.902 305.106C295.379 304.544 294.964 303.877 294.681 303.142C294.398 302.407 294.252 301.62 294.252 300.825V300.825Z" stroke="#00BB61" stroke-width="3.11" stroke-linecap="round" stroke-linejoin="round"/>
</g>
<defs>
<clipPath id="clip0">
<rect x="0.723511" y="0.470581" width="425.037" height="578.824" fill="white"/>
</clipPath>
</defs>
</svg>
